# xmcd
#
# Track frame offsets: 
#        150
#        14220
#        27132
#        39667
#        50505
#        64440
#        76895
#        88612
#        100210
#        112222
#        124475
#        136462
#        147845
#        160780
#        172840
#        184542
#        196937
#        209490
#        221975
#        234075
#        243542
#        255915
#        267935
#        279475
#        291537
#        305422
#        316850
#
# Disc length: 4385 seconds
#
# Revision: 8
# Processed by: cddbd v1.5.2PL0 Copyright (c) Steve Scherf et al.
# Submitted via: ExactAudioCopy v0.95b2
#
DISCID=95111f1b
DTITLE=Various Artist - Columbia Country Classics Vol. 1
DYEAR=1991
DGENRE=Country
TTITLE0=Carter Family - Can The Circle Be Unbroken (Bye and Bye)
TTITLE1=Roy Acuff and His Crazy Tennesseans - Great Speckled Bird
TTITLE2=Chuck Wagon Gang - After The Sunrise
TTITLE3=Gene Autry - You Are My Sunshine
TTITLE4=Patsy Montana and The Prarie Ramblers - I Want To Be A Cowboy's 
TTITLE4=Sweetheart
TTITLE5=Al Dexter and His Troopers - Pistol Packin' Mama
TTITLE6=Gene Autry - Back In The Saddle Again
TTITLE7=Bob Wills and His Texas Playboys - New San Antonio Rose
TTITLE8=Bob Wills and His Texas Playboys - Time Changes Everything
TTITLE9=Gene Autry - It Makes No Difference Now
TTITLE10=Bob Wills and His Texas Playboys - Take Me Back To Tulsa
TTITLE11=Texas Ruby - Don't Let That Man Get You Down
TTITLE12=Spade Cooley - Shame On You
TTITLE13=Ted Daffan's Texans - Born To Lose
TTITLE14=Wiley Walker and Gene Sullivan - When My Blue Moon Turns To Gol
TTITLE14=d Again
TTITLE15=Roy Acuff and His Smokey Mountain Boys - Wreck On The Highway
TTITLE16=Molly O'Day and The Cumberland Mountain Folks - When God Comes 
TTITLE16=And Gathers His Jewels
TTITLE17=Molly O'Day and The Cumberland Mountain Folks - The Tramp On Th
TTITLE17=e Street
TTITLE18=Roy Acuff and His Smokey Mountain Boys - I Saw The Light
TTITLE19=Wilma Lee and Stoney Cooper With The Clunch Mountain Clan - Are
TTITLE19=You Walking And A-Talking For The Lor
TTITLE20=Bill Monroe and His Bluegrass Boys - Molly And Tenbrooks (The R
TTITLE20=ace Horse Song)
TTITLE21=Molly O'Day and The Cumberland Mountain Folks - Poor Ellen Smit
TTITLE21=h
TTITLE22=Roy Acuff and His Smokey Mountain Boys - Wabash Cannonball
TTITLE23=Roy Acuff and His Smokey Mountain Boys - Blue Eyes Crying In Th
TTITLE23=e Rain
TTITLE24=Bill Monroe and His Bluegrass Boys - Blue Moon Of Kentucky
TTITLE25=Stanley Brothers and The Clinch Mountain Boys - The Fields Have
TTITLE25=Turned Brown
TTITLE26=Lester Flatt, Earl Scruggs and The Foggy Mountain Boys - Don't 
TTITLE26=Get Above Your Raisin'
EXTD=YEAR: 1991
EXTT0=
EXTT1=
EXTT2=
EXTT3=
EXTT4=
EXTT5=
EXTT6=
EXTT7=
EXTT8=
EXTT9=
EXTT10=
EXTT11=
EXTT12=
EXTT13=
EXTT14=
EXTT15=
EXTT16=
EXTT17=
EXTT18=
EXTT19=
EXTT20=
EXTT21=
EXTT22=
EXTT23=
EXTT24=
EXTT25=
EXTT26=
PLAYORDER=
